<svg data-v-423bf9ae="" xmlns="http://www.w3.org/2000/svg" viewBox="0 0 93.41175278220436 60" class="font"><!----><!----><defs data-v-423bf9ae=""><linearGradient data-v-423bf9ae="" gradientTransform="rotate(25)" id="d76f81d0-b68d-4d02-b683-4b999d468d41" x1="0%" y1="0%" x2="100%" y2="0%"><stop data-v-423bf9ae="" offset="0%" style="stop-color: rgb(5, 9, 34); stop-opacity: 1;"></stop><stop data-v-423bf9ae="" offset="100%" style="stop-color: rgb(110, 230, 199); stop-opacity: 1;"></stop></linearGradient></defs><g data-v-423bf9ae="" id="89f6bf46-c32b-40ae-85f3-4730fafac666" fill="url(#d76f81d0-b68d-4d02-b683-4b999d468d41)" transform="matrix(5.882352501188353,0,0,5.882352501188353,-3.9411744669239113,-33.411761673814276)"><path d="M4.31 14.20L4.31 14.20L4.31 14.20Q4.84 14.20 5.19 14.04L5.19 14.04L5.19 14.04Q5.53 13.87 5.72 13.60L5.72 13.60L5.72 13.60Q5.91 13.33 5.98 12.97L5.98 12.97L5.98 12.97Q6.05 12.61 6.05 12.24L6.05 12.24L6.05 11.98L7.90 11.98L7.90 12.24L7.90 12.24Q7.90 13.99 6.98 14.93L6.98 14.93L6.98 14.93Q6.06 15.88 4.31 15.88L4.31 15.88L4.31 15.88Q2.63 15.88 1.65 14.85L1.65 14.85L1.65 14.85Q0.67 13.83 0.67 11.87L0.67 11.87L0.67 9.69L0.67 9.69Q0.67 8.75 0.92 8.00L0.92 8.00L0.92 8.00Q1.18 7.25 1.65 6.74L1.65 6.74L1.65 6.74Q2.13 6.23 2.80 5.96L2.80 5.96L2.80 5.96Q3.47 5.68 4.31 5.68L4.31 5.68L4.31 5.68Q5.18 5.68 5.85 5.94L5.85 5.94L5.85 5.94Q6.52 6.19 6.98 6.66L6.98 6.66L6.98 6.66Q7.43 7.14 7.67 7.81L7.67 7.81L7.67 7.81Q7.90 8.48 7.90 9.32L7.90 9.32L7.90 9.58L6.05 9.58L6.05 9.32L6.05 9.32Q6.05 8.97 5.96 8.62L5.96 8.62L5.96 8.62Q5.88 8.27 5.68 7.99L5.68 7.99L5.68 7.99Q5.49 7.71 5.15 7.54L5.15 7.54L5.15 7.54Q4.82 7.36 4.31 7.36L4.31 7.36L4.31 7.36Q3.85 7.36 3.51 7.54L3.51 7.54L3.51 7.54Q3.18 7.71 2.95 8.02L2.95 8.02L2.95 8.02Q2.73 8.32 2.63 8.71L2.63 8.71L2.63 8.71Q2.52 9.11 2.52 9.55L2.52 9.55L2.52 12.01L2.52 12.01Q2.52 12.49 2.62 12.89L2.62 12.89L2.62 12.89Q2.72 13.29 2.93 13.58L2.93 13.58L2.93 13.58Q3.14 13.87 3.48 14.04L3.48 14.04L3.48 14.04Q3.82 14.20 4.31 14.20ZM14.53 9.21L14.53 8.88L14.53 8.88Q14.53 8.29 14.08 7.85L14.08 7.85L14.08 7.85Q13.62 7.42 12.80 7.42L12.80 7.42L12.80 7.42Q12.10 7.42 11.69 7.71L11.69 7.71L11.69 7.71Q11.28 7.99 11.28 8.48L11.28 8.48L11.28 8.48Q11.28 8.74 11.38 8.94L11.38 8.94L11.38 8.94Q11.48 9.14 11.72 9.30L11.72 9.30L11.72 9.30Q11.97 9.46 12.37 9.59L12.37 9.59L12.37 9.59Q12.77 9.72 13.38 9.83L13.38 9.83L13.38 9.83Q14.92 10.11 15.74 10.77L15.74 10.77L15.74 10.77Q16.55 11.42 16.55 12.71L16.55 12.71L16.55 12.88L16.55 12.88Q16.55 13.57 16.30 14.12L16.30 14.12L16.30 14.12Q16.06 14.67 15.60 15.06L15.60 15.06L15.60 15.06Q15.13 15.46 14.48 15.67L14.48 15.67L14.48 15.67Q13.82 15.88 12.99 15.88L12.99 15.88L12.99 15.88Q12.03 15.88 11.29 15.60L11.29 15.60L11.29 15.60Q10.56 15.33 10.07 14.85L10.07 14.85L10.07 14.85Q9.58 14.36 9.32 13.71L9.32 13.71L9.32 13.71Q9.07 13.06 9.07 12.29L9.07 12.29L9.07 11.87L10.92 11.87L10.92 12.21L10.92 12.21Q10.92 13.09 11.43 13.62L11.43 13.62L11.43 13.62Q11.94 14.14 13.02 14.14L13.02 14.14L13.02 14.14Q13.86 14.14 14.27 13.78L14.27 13.78L14.27 13.78Q14.67 13.41 14.67 12.91L14.67 12.91L14.67 12.91Q14.67 12.67 14.59 12.45L14.59 12.45L14.59 12.45Q14.50 12.24 14.29 12.06L14.29 12.06L14.29 12.06Q14.08 11.89 13.72 11.75L13.72 11.75L13.72 11.75Q13.36 11.61 12.80 11.51L12.80 11.51L12.80 11.51Q12.05 11.38 11.44 11.18L11.44 11.18L11.44 11.18Q10.82 10.98 10.37 10.64L10.37 10.64L10.37 10.64Q9.91 10.30 9.66 9.80L9.66 9.80L9.66 9.80Q9.41 9.30 9.41 8.57L9.41 8.57L9.41 8.48L9.41 8.48Q9.41 7.88 9.65 7.37L9.65 7.37L9.65 7.37Q9.90 6.86 10.34 6.48L10.34 6.48L10.34 6.48Q10.78 6.10 11.40 5.89L11.40 5.89L11.40 5.89Q12.03 5.68 12.80 5.68L12.80 5.68L12.80 5.68Q13.66 5.68 14.34 5.93L14.34 5.93L14.34 5.93Q15.01 6.17 15.46 6.59L15.46 6.59L15.46 6.59Q15.92 7.01 16.15 7.56L16.15 7.56L16.15 7.56Q16.38 8.11 16.38 8.71L16.38 8.71L16.38 9.21L14.53 9.21Z"></path></g><!----><!----></svg>